<svg width="390" height="563" viewBox="0 0 390 563" fill="none" xmlns="http://www.w3.org/2000/svg">
<rect width="390" height="563" fill="#E5E5E5"/>
<ellipse cx="199" cy="129.5" rx="99" ry="101.5" fill="#A6CED0"/>
<path d="M323 123C323 146.748 314.493 166 304 166C293.507 166 285 146.748 285 123C285 99.2517 293.507 80 304 80C361.5 14 323 99.2517 323 123Z" fill="#A6CED0"/>
<path d="M113 131.818C113 156.05 105.603 166 96.4785 166C87.3539 166 79.9569 156.05 79.9569 131.818C5.61003 4.27503 87.3539 87.9435 96.4785 87.9435C105.603 87.9435 113 107.587 113 131.818Z" fill="#A6CED0"/>
<ellipse cx="203.5" cy="384.5" rx="137.5" ry="178.5" fill="#A6CED0"/>
<path d="M95.8834 247.531C110.956 275.796 109.348 306.083 92.2912 315.178C75.2348 324.274 49.1892 308.734 34.1167 280.469C6.67054 229 20.6525 221.917 37.7089 212.822C50.5 178 80.8109 219.266 95.8834 247.531Z" fill="#A6CED0"/>
<path d="M351.202 277.645C335.552 305.278 309.425 320.066 292.846 310.676C276.266 301.286 275.513 271.273 291.163 243.641C306.813 216.009 329 181.5 349.52 210.611C385.5 221.5 366.852 250.013 351.202 277.645Z" fill="#A6CED0"/>
<path d="M112.447 467.287C126.487 502.13 118.975 537.99 95.6669 547.382C72.3592 556.774 42.0824 536.142 28.042 501.299C-29.5001 431 18.1922 405.892 41.5 396.5C64.8078 387.108 98.4065 432.443 112.447 467.287Z" fill="#A6CED0"/>
<path d="M367.199 503.551C356.304 537.176 327.666 558.017 303.236 550.101C278.805 542.184 267.833 508.509 278.728 474.884C289.624 441.259 328.069 403.084 352.5 411C418.808 411 378.095 469.926 367.199 503.551Z" fill="#A6CED0"/>
<ellipse cx="203.5" cy="7" rx="92.5" ry="7" fill="#3DA4BB"/>
</svg>
